<svg width="52" height="52" viewBox="0 0 52 52" fill="none" xmlns="http://www.w3.org/2000/svg">
<path d="M46.7999 46.8V31.564C46.7999 24.076 45.1879 18.356 36.4519 18.356C32.2399 18.356 29.4319 20.644 28.2879 22.828H28.1839V19.032H19.9159V46.8H28.5479V33.02C28.5479 29.38 29.2239 25.896 33.6959 25.896C38.1159 25.896 38.1679 30.004 38.1679 33.228V46.748H46.7999V46.8Z" fill="#0F6091"/>
<path d="M5.87598 19.032H14.508V46.8H5.87598V19.032Z" fill="#0F6091"/>
<path d="M10.192 5.19995C7.43595 5.19995 5.19995 7.43595 5.19995 10.192C5.19995 12.948 7.43595 15.236 10.192 15.236C12.948 15.236 15.184 12.948 15.184 10.192C15.184 7.43595 12.948 5.19995 10.192 5.19995Z" fill="#0F6091"/>
</svg>
