<svg width="191" height="46" viewBox="0 0 191 46" fill="none" xmlns="http://www.w3.org/2000/svg">
<g clip-path="url(#clip0_61_5916)">
<path d="M191 27.8093C191 29.303 190.741 30.6928 190.222 31.9786C189.712 33.2643 188.991 34.3846 188.057 35.3395C187.123 36.2849 185.995 37.0271 184.675 37.566C183.363 38.1049 181.906 38.3743 180.302 38.3743C178.698 38.3743 177.236 38.1049 175.916 37.566C174.595 37.0271 173.463 36.2849 172.519 35.3395C171.585 34.3846 170.859 33.2643 170.34 31.9786C169.831 30.6928 169.576 29.303 169.576 27.8093C169.576 26.3155 169.831 24.9258 170.34 23.64C170.859 22.3542 171.585 21.2386 172.519 20.2932C173.463 19.3478 174.595 18.6057 175.916 18.0668C177.236 17.5279 178.698 17.2584 180.302 17.2584C181.906 17.2584 183.363 17.5326 184.675 18.0809C185.995 18.6198 187.123 19.362 188.057 20.3074C188.991 21.2528 189.712 22.3684 190.222 23.6542C190.741 24.9399 191 26.325 191 27.8093ZM186.104 27.8093C186.104 26.7882 185.972 25.8712 185.708 25.0581C185.444 24.2356 185.062 23.5407 184.562 22.9735C184.071 22.4062 183.467 21.9713 182.75 21.6688C182.033 21.3663 181.217 21.215 180.302 21.215C179.378 21.215 178.552 21.3663 177.826 21.6688C177.109 21.9713 176.5 22.4062 176 22.9735C175.51 23.5407 175.133 24.2356 174.868 25.0581C174.604 25.8712 174.472 26.7882 174.472 27.8093C174.472 28.8398 174.604 29.7663 174.868 30.5888C175.133 31.4019 175.51 32.092 176 32.6593C176.5 33.2265 177.109 33.6614 177.826 33.9639C178.552 34.257 179.378 34.4036 180.302 34.4036C181.217 34.4036 182.033 34.257 182.75 33.9639C183.467 33.6614 184.071 33.2265 184.562 32.6593C185.062 32.092 185.444 31.4019 185.708 30.5888C185.972 29.7663 186.104 28.8398 186.104 27.8093Z" fill="#0F6091"/>
<path d="M158.607 21.1726V26.4055H165.654V30.1068H158.607V38.1475H153.796V17.4855H167.069V21.1726H158.607Z" fill="#0F6091"/>
<path d="M148.015 32.8011C148.128 32.8011 148.241 32.8247 148.354 32.872C148.468 32.9098 148.576 32.9807 148.68 33.0847L150.576 35.0843C149.746 36.1715 148.703 36.994 147.449 37.5518C146.203 38.1001 144.727 38.3743 143.02 38.3743C141.454 38.3743 140.048 38.1096 138.803 37.5802C137.567 37.0413 136.515 36.3038 135.647 35.3679C134.789 34.4225 134.128 33.3069 133.666 32.0211C133.204 30.7259 132.973 29.3219 132.973 27.8093C132.973 26.2683 133.223 24.8549 133.723 23.5691C134.223 22.2739 134.925 21.1583 135.831 20.2223C136.737 19.2864 137.822 18.5584 139.086 18.0384C140.35 17.5184 141.741 17.2584 143.26 17.2584C144.034 17.2584 144.76 17.3293 145.439 17.4712C146.128 17.6035 146.769 17.7926 147.364 18.0384C147.958 18.2748 148.505 18.5631 149.005 18.9035C149.505 19.2438 149.949 19.6125 150.335 20.0096L148.722 22.1793C148.618 22.3117 148.496 22.4346 148.354 22.548C148.213 22.652 148.015 22.704 147.76 22.704C147.59 22.704 147.43 22.6662 147.279 22.5906C147.128 22.515 146.968 22.4251 146.798 22.3211C146.628 22.2077 146.439 22.0895 146.232 21.9666C146.034 21.8342 145.793 21.7161 145.51 21.6121C145.236 21.4986 144.911 21.4041 144.534 21.3285C144.166 21.2528 143.732 21.215 143.232 21.215C142.439 21.215 141.713 21.3615 141.053 21.6546C140.402 21.9477 139.836 22.3779 139.355 22.9451C138.883 23.5029 138.515 24.1931 138.251 25.0156C137.996 25.8286 137.869 26.7599 137.869 27.8093C137.869 28.8681 138.01 29.8088 138.293 30.6313C138.586 31.4539 138.977 32.1487 139.468 32.716C139.968 33.2738 140.548 33.6992 141.208 33.9923C141.869 34.2854 142.576 34.4319 143.331 34.4319C143.765 34.4319 144.161 34.413 144.52 34.3752C144.878 34.3279 145.213 34.257 145.524 34.1625C145.836 34.0585 146.128 33.9261 146.402 33.7654C146.675 33.5952 146.953 33.3825 147.236 33.1272C147.35 33.0327 147.472 32.9571 147.604 32.9003C147.736 32.8342 147.873 32.8011 148.015 32.8011Z" fill="#0F6091"/>
<rect x="106.501" y="17.4429" width="4.81121" height="20.7046" fill="black"/>
<rect x="114.284" y="8.6506" width="4.81121" height="29.497" fill="#0F6091"/>
<rect x="122.067" y="-6.10352e-05" width="4.81121" height="38.1475" fill="black"/>
<path d="M94.1394 30.291V38.1474H89.3564V30.291L81.8849 17.4854H86.1018C86.5169 17.4854 86.8424 17.5846 87.0782 17.7832C87.3235 17.9723 87.5263 18.2181 87.6867 18.5206L90.6017 24.5334C90.847 25.0061 91.0687 25.4505 91.2668 25.8665C91.4649 26.273 91.6394 26.6748 91.7903 27.0719C91.9319 26.6654 92.0922 26.2588 92.2715 25.8523C92.4601 25.4363 92.6771 24.9967 92.9224 24.5334L95.8091 18.5206C95.8752 18.3977 95.9553 18.2748 96.0497 18.1519C96.144 18.029 96.2525 17.9203 96.3751 17.8257C96.5072 17.7217 96.6534 17.6414 96.8138 17.5846C96.9836 17.5185 97.1676 17.4854 97.3657 17.4854H101.611L94.1394 30.291Z" fill="#000C2E"/>
<path d="M63.3301 34.3185V38.1474H50.9059V17.4854H55.6888V34.3185H63.3301Z" fill="#000C2E"/>
<path d="M45.7959 38.1474H40.9847V17.4854H45.7959V38.1474Z" fill="#000C2E"/>
<path d="M30.6282 30.2485L28.7179 24.5902C28.5764 24.2309 28.4255 23.8102 28.2651 23.328C28.1047 22.8364 27.9443 22.307 27.784 21.7397C27.6425 22.3164 27.4915 22.8506 27.3311 23.3422C27.1708 23.8338 27.0198 24.2593 26.8783 24.6185L24.9821 30.2485H30.6282ZM38.2271 38.1474H34.5197C34.1046 38.1474 33.7697 38.0529 33.515 37.8638C33.2602 37.6653 33.0669 37.4147 32.9348 37.1122L31.7178 33.5102H23.8784L22.6614 37.1122C22.5577 37.3769 22.369 37.618 22.0954 37.8354C21.8313 38.0434 21.5011 38.1474 21.1049 38.1474H17.3691L25.3501 17.4854H30.2462L38.2271 38.1474Z" fill="#000C2E"/>
<path d="M8.23535 38.1473C9.47117 38.1473 10.571 37.9915 11.5332 37.6796C12.4951 37.3582 13.3014 36.9187 13.9521 36.3612C14.6124 35.7941 15.1125 35.132 15.4521 34.3758C15.7918 33.6195 15.9619 32.801 15.9619 31.9217C15.9619 30.7496 15.6362 29.7948 14.9854 29.0575C14.3345 28.3201 13.33 27.7858 11.9717 27.4549C12.5942 27.2281 13.127 26.9583 13.5703 26.6464C14.0136 26.3344 14.3772 25.9945 14.6602 25.6258C14.9432 25.2477 15.1502 24.8452 15.2822 24.4198C15.4142 23.985 15.4805 23.5362 15.4805 23.0731C15.4805 22.2223 15.3344 21.4517 15.042 20.7616C14.759 20.0715 14.3019 19.4849 13.6699 19.0028C13.0379 18.5207 12.2215 18.1474 11.2217 17.8827C10.2218 17.618 9.00936 17.4852 7.58496 17.4852H0V29.3837H8.12207C8.72564 29.3837 9.22591 29.4402 9.62207 29.5536C10.0182 29.667 10.3345 29.8281 10.5703 30.036C10.8156 30.244 10.9857 30.4991 11.0801 30.8016C11.1838 31.1042 11.2354 31.4449 11.2354 31.8231C11.2353 32.1539 11.1933 32.4803 11.1084 32.8016C11.0235 33.123 10.868 33.4117 10.6416 33.6669C10.4153 33.922 10.0988 34.1292 9.69336 34.2899C9.29714 34.4506 8.78245 34.5311 8.15039 34.5311H4.90039V34.5585H0V38.1473H8.23535ZM4.7832 26.1786V21.0731H7.58496C8.12258 21.0731 8.58495 21.116 8.97168 21.201C9.36782 21.2861 9.69357 21.4283 9.94824 21.6268C10.2028 21.8253 10.3911 22.09 10.5137 22.4208C10.6363 22.7422 10.6982 23.1489 10.6982 23.6405C10.6982 24.1415 10.6174 24.5577 10.457 24.8885C10.3061 25.2191 10.0799 25.4788 9.77832 25.6678C9.48588 25.8569 9.12667 25.9897 8.70215 26.0653C8.27776 26.1409 7.80152 26.1786 7.27344 26.1786H4.7832Z" fill="#000C2E"/>
<path d="M80.18 38.1473V34.4608H71.7181V29.5399H78.1985V26.0936H66.9066V38.1473H80.18Z" fill="#000C2E"/>
<rect x="66.8795" y="17.4429" width="13.3016" height="3.68712" fill="#0F6091"/>
</g>
<defs>
<clipPath id="clip0_61_5916">
<rect width="191" height="45.3516" fill="white" transform="matrix(1 0 0 -1 0 45.3516)"/>
</clipPath>
</defs>
</svg>
