<svg width="40" height="40" viewBox="0 0 40 40" fill="none" xmlns="http://www.w3.org/2000/svg">
<path d="M19.9993 24.3241C17.6144 24.3241 15.675 22.3848 15.675 20C15.675 17.6151 17.6144 15.6733 19.9993 15.6733C22.3842 15.6733 24.3248 17.6151 24.3248 20C24.3236 22.3848 22.3842 24.3241 19.9993 24.3241ZM19.9993 16.4338C18.0338 16.4338 16.4343 18.0333 16.4343 20C16.4343 21.9654 18.0338 23.5648 19.9993 23.5648C21.966 23.5648 23.5655 21.9654 23.5655 20C23.5655 18.0333 21.966 16.4338 19.9993 16.4338Z" fill="white"/>
<path d="M19.9994 28.2699C15.4411 28.2699 11.7292 24.5595 11.7292 20.0001C11.7292 15.4408 15.4398 11.729 19.9994 11.729C24.5589 11.729 28.2707 15.4395 28.2707 20.0001C28.2695 24.5595 24.5589 28.2699 19.9994 28.2699ZM19.9994 12.4895C15.8593 12.4895 12.4898 15.859 12.4898 20.0001C12.4898 24.1413 15.8593 27.5107 19.9994 27.5107C24.1406 27.5107 27.5102 24.1413 27.5102 20.0001C27.5102 15.859 24.1406 12.4895 19.9994 12.4895Z" fill="white"/>
<path d="M19.9994 32.2153C13.2653 32.2153 7.78467 26.7361 7.78467 19.9998C7.78467 13.2659 13.2641 7.7854 19.9994 7.7854C26.7347 7.7854 32.2141 13.2646 32.2141 19.9998C32.2141 26.7349 26.7347 32.2153 19.9994 32.2153ZM19.9994 8.54344C13.6835 8.54344 8.54397 13.6816 8.54397 19.9985C8.54397 26.3154 13.6835 31.4548 19.9994 31.4548C26.3165 31.4548 31.456 26.3154 31.456 19.9985C31.456 13.6816 26.3165 8.54344 19.9994 8.54344Z" fill="white"/>
<path d="M19.9994 40C8.97215 40 0 31.0269 0 19.9988C0 8.97313 8.97215 0 19.9994 0C31.0278 0 40 8.97313 40 19.9988C40 31.0281 31.0278 40 19.9994 40ZM19.9994 0.758039C9.39038 0.758039 0.756809 9.39135 0.756809 19.9988C0.756809 30.6099 9.39038 39.2407 19.9994 39.2407C30.6096 39.2407 39.2407 30.6099 39.2407 19.9988C39.2407 9.39135 30.6096 0.758039 19.9994 0.758039Z" fill="white"/>
<path d="M19.9994 36.16C11.0895 36.16 3.84009 28.9108 3.84009 19.9999C3.84009 11.089 11.0895 3.83984 19.9994 3.83984C28.9106 3.83984 36.16 11.0903 36.16 19.9999C36.16 28.9095 28.9106 36.16 19.9994 36.16ZM19.9994 4.5991C11.5077 4.5991 4.59813 11.5073 4.59813 19.9999C4.59813 28.4913 11.5077 35.4007 19.9994 35.4007C28.4923 35.4007 35.4007 28.4913 35.4007 19.9999C35.4007 11.5073 28.4923 4.5991 19.9994 4.5991Z" fill="white"/>
</svg>
