<svg width="41" height="40" viewBox="0 0 41 40" fill="none" xmlns="http://www.w3.org/2000/svg">
<path d="M1.25802 19.8725C1.25802 9.33025 9.89133 0.754435 20.5 0.754435C31.1087 0.754435 39.742 9.33025 39.742 19.8725C39.742 19.9158 39.7395 19.9579 39.737 19.9999H40.4975C40.4975 19.9579 40.5 19.9158 40.5 19.8725C40.5 8.9147 31.5269 0 20.5 0C9.47311 0 0.5 8.9147 0.5 19.8725C0.5 19.9158 0.503723 19.9579 0.503723 19.9999H1.263C1.26175 19.9567 1.25802 19.9158 1.25802 19.8725Z" fill="white"/>
<path d="M16.4351 19.3878C16.4351 17.4814 18.0333 15.9309 19.9999 15.9309C21.9666 15.9309 23.5661 17.4814 23.5661 19.3878C23.5661 19.43 23.5611 19.4711 23.5586 19.5121H24.3179C24.3191 19.4711 24.3241 19.43 24.3241 19.3878C24.3241 17.0759 22.3836 15.196 19.9987 15.196C17.6139 15.196 15.6733 17.0759 15.6733 19.3878C15.6733 19.43 15.6808 19.4711 15.6808 19.5121H16.4388C16.4401 19.4699 16.4351 19.43 16.4351 19.3878Z" fill="white"/>
<path d="M8.54497 19.3876C8.54497 13.264 13.6844 8.28315 20 8.28315C26.3182 8.28315 31.4551 13.264 31.4551 19.3876C31.4551 19.4298 31.4526 19.4709 31.4526 19.5119H32.2106C32.2119 19.4709 32.2144 19.4298 32.2144 19.3876C32.2144 12.8586 26.7364 7.54712 19.9988 7.54712C13.2649 7.54712 7.7832 12.8586 7.7832 19.3876C7.7832 19.4298 7.78694 19.4709 7.78694 19.5119H8.54497C8.54745 19.4697 8.54497 19.4298 8.54497 19.3876Z" fill="white"/>
<path d="M4.59933 19.3879C4.59933 11.1551 11.5087 4.45845 20.0001 4.45845C28.4928 4.45845 35.4009 11.1551 35.4009 19.3879C35.4009 19.4301 35.3984 19.4711 35.3984 19.5122H36.1565C36.1565 19.4711 36.1589 19.4301 36.1589 19.3879C36.1589 10.7509 28.911 3.72241 20.0001 3.72241C11.0905 3.72241 3.84131 10.7509 3.84131 19.3879C3.84131 19.4301 3.8438 19.4711 3.8438 19.5122H4.60307C4.60183 19.4699 4.59933 19.4301 4.59933 19.3879Z" fill="white"/>
</svg>
