<svg width="41" height="40" viewBox="0 0 41 40" fill="none" xmlns="http://www.w3.org/2000/svg">
<path d="M18.0206 0.663346L17.4091 0L9.2576 8.81319L1.11325 0L0.5 0.663346L8.64612 9.47654L0.5 18.2878L1.11325 18.9511L9.2576 10.1399L17.4091 18.9511L18.0206 18.2878L9.87261 9.47654L18.0206 0.663346Z" fill="white"/>
<path d="M40.4998 0.663346L39.8883 0L31.7403 8.81319L23.5924 0L22.981 0.663346L31.1253 9.47654L22.981 18.2878L23.5924 18.9511L31.7403 10.1399L39.8883 18.9511L40.4998 18.2878L32.3518 9.47654L40.4998 0.663346Z" fill="white"/>
<path d="M18.0206 21.7121L17.4091 21.0488L9.2576 29.862L1.11325 21.0488L0.5 21.7121L8.64612 30.5273L0.5 39.3366L1.11325 39.9999L9.2576 31.1887L17.4091 39.9999L18.0206 39.3366L9.87261 30.5273L18.0206 21.7121Z" fill="white"/>
<path d="M40.4998 21.7121L39.8883 21.0488L31.7403 29.862L23.5924 21.0488L22.981 21.7121L31.1253 30.5273L22.981 39.3366L23.5924 39.9999L31.7403 31.1887L39.8883 39.9999L40.4998 39.3366L32.3518 30.5273L40.4998 21.7121Z" fill="white"/>
</svg>
