<svg width="81" height="80" viewBox="0 0 81 80" fill="none" xmlns="http://www.w3.org/2000/svg">
<path d="M31.9833 47.8C25.2637 47.8 19.8167 53.2471 19.8167 59.9667C19.8167 66.6863 25.2637 72.1334 31.9833 72.1334C38.7029 72.1334 44.15 66.6863 44.15 59.9667C44.1429 53.2501 38.6999 47.8072 31.9833 47.8ZM31.9833 69.7001C26.6075 69.7001 22.25 65.3425 22.25 59.9667C22.25 54.5909 26.6075 50.2334 31.9833 50.2334C37.3591 50.2334 41.7167 54.5909 41.7167 59.9667C41.7107 65.3395 37.3561 69.6941 31.9833 69.7001Z" fill="#0F6091"/>
<path d="M31.9834 56.3167C33.4691 56.3167 34.4167 57.0368 34.4167 57.5334H36.85C36.85 55.8047 35.3185 54.4044 33.2 54.0052V52.6667H30.7667V54.0052C28.6482 54.4014 27.1167 55.8023 27.1167 57.5334C27.1167 59.5812 29.2542 61.1834 31.9834 61.1834C33.4691 61.1834 34.4167 61.9034 34.4167 62.4001C34.4167 62.8967 33.4691 63.6167 31.9834 63.6167C30.4976 63.6167 29.55 62.8967 29.55 62.4001H27.1167C27.1167 64.1288 28.6482 65.5291 30.7667 65.9283V67.2667H33.2V65.9283C35.3185 65.532 36.85 64.1312 36.85 62.4001C36.85 60.3523 34.7125 58.7501 31.9834 58.7501C30.4976 58.7501 29.55 58.0301 29.55 57.5334C29.55 57.0368 30.4976 56.3167 31.9834 56.3167Z" fill="#0F6091"/>
<path d="M66.05 74.5667H14.95V45.3667H34.4167C36.4324 45.3667 38.0667 43.7324 38.0667 41.7167V11.3H51.45V25.9H66.05V42.9333H68.4833V24.1796L53.1704 8.86667H38.0667V7.65C38.0667 5.6343 36.4324 4 34.4167 4H7.65C5.6343 4 4 5.6343 4 7.65V41.7167C4 43.7324 5.6343 45.3667 7.65 45.3667H12.5167V77H68.4833V59.9667H66.05V74.5667ZM53.8833 13.0204L64.3296 23.4667H53.8833V13.0204ZM6.43333 41.7167V7.65C6.43333 6.9781 6.9781 6.43333 7.65 6.43333H34.4167C35.0886 6.43333 35.6333 6.9781 35.6333 7.65V41.7167C35.6333 42.3886 35.0886 42.9333 34.4167 42.9333H7.65C6.9781 42.9333 6.43333 42.3886 6.43333 41.7167Z" fill="#0F6091"/>
<path d="M42.9333 34.4167H45.3667V36.8501H42.9333V34.4167Z" fill="#0F6091"/>
<path d="M47.8 34.4167H62.4V36.8501H47.8V34.4167Z" fill="#0F6091"/>
<path d="M42.9333 29.55H45.3667V31.9834H42.9333V29.55Z" fill="#0F6091"/>
<path d="M47.8 29.55H62.4V31.9834H47.8V29.55Z" fill="#0F6091"/>
<path d="M42.9333 39.2833H45.3667V41.7167H42.9333V39.2833Z" fill="#0F6091"/>
<path d="M47.8 39.2833H62.4V41.7167H47.8V39.2833Z" fill="#0F6091"/>
<path d="M42.9333 44.15H45.3667V46.5834H42.9333V44.15Z" fill="#0F6091"/>
<path d="M47.8 44.15H62.4V46.5834H47.8V44.15Z" fill="#0F6091"/>
<path d="M34.4167 7.65002H7.65002V16.1667H34.4167V7.65002ZM31.9834 13.7334H10.0834V10.0834H31.9834V13.7334Z" fill="#0F6091"/>
<path d="M13.7334 17.3834H11.3C9.95623 17.3834 8.8667 18.4729 8.8667 19.8167V22.25C8.8667 23.5938 9.95623 24.6834 11.3 24.6834H13.7334C15.0772 24.6834 16.1667 23.5938 16.1667 22.25V19.8167C16.1667 18.4729 15.0772 17.3834 13.7334 17.3834ZM11.3 22.25V19.8167H13.7334V22.25H11.3Z" fill="#0F6091"/>
<path d="M22.25 17.3834H19.8166C18.4728 17.3834 17.3833 18.4729 17.3833 19.8167V22.25C17.3833 23.5938 18.4728 24.6834 19.8166 24.6834H22.25C23.5938 24.6834 24.6833 23.5938 24.6833 22.25V19.8167C24.6833 18.4729 23.5938 17.3834 22.25 17.3834ZM19.8166 22.25V19.8167H22.25V22.25H19.8166Z" fill="#0F6091"/>
<path d="M30.7667 17.3834H28.3334C26.9896 17.3834 25.9 18.4729 25.9 19.8167V22.25C25.9 23.5938 26.9896 24.6834 28.3334 24.6834H30.7667C32.1105 24.6834 33.2 23.5938 33.2 22.25V19.8167C33.2 18.4729 32.1105 17.3834 30.7667 17.3834ZM28.3334 22.25V19.8167H30.7667V22.25H28.3334Z" fill="#0F6091"/>
<path d="M13.7334 25.9H11.3C9.95623 25.9 8.8667 26.9896 8.8667 28.3334V30.7667C8.8667 32.1105 9.95623 33.2 11.3 33.2H13.7334C15.0772 33.2 16.1667 32.1105 16.1667 30.7667V28.3334C16.1667 26.9896 15.0772 25.9 13.7334 25.9ZM11.3 30.7667V28.3334H13.7334V30.7667H11.3Z" fill="#0F6091"/>
<path d="M22.25 25.9H19.8166C18.4728 25.9 17.3833 26.9896 17.3833 28.3334V30.7667C17.3833 32.1105 18.4728 33.2 19.8166 33.2H22.25C23.5938 33.2 24.6833 32.1105 24.6833 30.7667V28.3334C24.6833 26.9896 23.5938 25.9 22.25 25.9ZM19.8166 30.7667V28.3334H22.25V30.7667H19.8166Z" fill="#0F6091"/>
<path d="M30.7667 25.9H28.3334C26.9896 25.9 25.9 26.9896 25.9 28.3334V30.7667C25.9 32.1105 26.9896 33.2 28.3334 33.2H30.7667C32.1105 33.2 33.2 32.1105 33.2 30.7667V28.3334C33.2 26.9896 32.1105 25.9 30.7667 25.9ZM28.3334 30.7667V28.3334H30.7667V30.7667H28.3334Z" fill="#0F6091"/>
<path d="M13.7334 34.4167H11.3C9.95623 34.4167 8.8667 35.5063 8.8667 36.8501V39.2834C8.8667 40.6272 9.95623 41.7167 11.3 41.7167H13.7334C15.0772 41.7167 16.1667 40.6272 16.1667 39.2834V36.8501C16.1667 35.5063 15.0772 34.4167 13.7334 34.4167ZM11.3 39.2834V36.8501H13.7334V39.2834H11.3Z" fill="#0F6091"/>
<path d="M22.25 34.4167H19.8166C18.4728 34.4167 17.3833 35.5063 17.3833 36.8501V39.2834C17.3833 40.6272 18.4728 41.7167 19.8166 41.7167H22.25C23.5938 41.7167 24.6833 40.6272 24.6833 39.2834V36.8501C24.6833 35.5063 23.5938 34.4167 22.25 34.4167ZM19.8166 39.2834V36.8501H22.25V39.2834H19.8166Z" fill="#0F6091"/>
<path d="M30.7667 34.4167H28.3334C26.9896 34.4167 25.9 35.5063 25.9 36.8501V39.2834C25.9 40.6272 26.9896 41.7167 28.3334 41.7167H30.7667C32.1105 41.7167 33.2 40.6272 33.2 39.2834V36.8501C33.2 35.5063 32.1105 34.4167 30.7667 34.4167ZM28.3334 39.2834V36.8501H30.7667V39.2834H28.3334Z" fill="#0F6091"/>
<path d="M75.8951 42.8217C74.4509 41.4429 72.1785 41.4429 70.7343 42.8217L49.8769 63.6785C49.7759 63.7807 49.6934 63.8995 49.6333 64.0302L46.6962 70.4082C46.4842 70.8704 46.5822 71.4164 46.9422 71.7758C47.3016 72.1358 47.8476 72.2338 48.3097 72.0217L54.6877 69.0846C54.8184 69.0246 54.9373 68.9426 55.0394 68.8411L75.8951 47.9837C77.3208 46.5585 77.3208 44.2469 75.8951 42.8217ZM53.4711 66.965L50.2833 68.4335L51.7518 65.2457L67.3029 49.6934L69.0234 51.4138L53.4711 66.965ZM70.7474 49.6881L69.0269 47.9682L69.8788 47.1163L71.5993 48.8367L70.7474 49.6881ZM74.1788 46.2573L73.3185 47.1175L71.5981 45.3971L72.4595 44.5368C72.9401 44.077 73.6976 44.077 74.1788 44.5368C74.6534 45.0121 74.6534 45.782 74.1788 46.2573Z" fill="#0F6091"/>
</svg>
