<svg width="81" height="80" viewBox="0 0 81 80" fill="none" xmlns="http://www.w3.org/2000/svg">
<path fill-rule="evenodd" clip-rule="evenodd" d="M53.9536 50.6448C53.9563 50.6948 53.9563 50.7428 53.9526 50.7927C53.7934 52.9754 51.8493 54.4306 49.236 54.7722V55.6058C49.236 56.2111 48.7443 56.7028 48.139 56.7028C47.5337 56.7028 47.0421 56.2111 47.0421 55.6058V54.7871C45.6225 54.6541 44.2549 54.2927 42.9648 53.7059C42.4131 53.4565 42.1691 52.8067 42.4205 52.2541C42.6709 51.7024 43.3214 51.4584 43.8733 51.7098C45.6886 52.5352 48.3976 53.0611 50.3478 52.2263C51.4854 51.7328 51.7108 51.1376 51.7571 50.7098C51.7145 50.2957 51.4928 49.7173 50.3403 49.1989C48.7534 48.5151 47.0945 49.0506 45.1134 48.1677C42.9269 47.1576 42.4269 45.717 42.3926 44.6856C42.3917 44.6552 42.3926 44.6247 42.3944 44.5941C42.4499 43.5055 42.972 42.0195 45.1464 41.1155C45.7286 40.8642 46.3635 40.6914 47.0417 40.5999V39.7571C47.0417 39.1519 47.5334 38.6602 48.1387 38.6602C48.744 38.6602 49.2356 39.1517 49.2356 39.7571V40.5824C50.7345 40.7219 52.0745 41.0795 53.3056 41.6645C53.8526 41.9242 54.0856 42.5794 53.8259 43.1264C53.5662 43.6735 52.911 43.9064 52.3638 43.6458C51.144 43.0664 49.7697 42.7615 48.1637 42.7143C46.8525 42.6951 44.6021 43.3293 44.5881 44.6607C44.6011 44.9221 44.7037 45.5562 46.0169 46.1688C46.7923 46.4904 47.4605 46.5348 48.2339 46.5856C49.0878 46.6429 50.0573 46.7066 51.1939 47.1779C51.2022 47.1826 51.2133 47.1863 51.2216 47.1909C53.3613 48.1469 53.888 49.5978 53.9536 50.6448ZM74.4219 71.9845L72.4433 73.9623C72.3905 74.0143 72.3028 74.016 72.2483 73.9623L65.3041 67.0203C65.2533 66.9695 65.2533 66.8733 65.3041 66.8253C65.3041 66.8253 65.3041 66.8253 65.3041 66.8236L67.2827 64.8467C67.3345 64.793 67.4253 64.7943 67.4777 64.8467L74.4219 71.7906C74.4729 71.8415 74.4725 71.9325 74.4219 71.9845ZM36.811 59.0087C43.0702 65.2693 53.2077 65.268 59.4664 59.0082C65.7125 52.7618 65.7123 42.5999 59.4659 36.3538C53.2073 30.0946 43.0694 30.0944 36.8105 36.3543C30.5517 42.6143 30.5509 52.7488 36.811 59.0087ZM41.0233 22.9459L41.0235 30.9064C39.2011 31.68 37.5054 32.7547 35.9981 34.105L35.9977 22.9459H41.0233ZM50.7264 5.99506L55.7518 5.9949L55.7525 31.1269C54.1665 30.3968 52.4763 29.8979 50.7269 29.6512L50.7264 5.99506ZM75.9716 70.2387L69.0275 63.2949C68.119 62.3864 66.6405 62.3866 65.7312 63.2949L65.5177 63.5083L61.7693 59.76C69.1648 51.424 67.3819 38.3797 57.9464 32.328L57.9457 4.90418C57.9457 4.29426 57.455 3.8045 56.8488 3.8045L49.6294 3.80466C49.0241 3.80466 48.5334 4.29442 48.5334 4.9045L48.5341 29.4727C46.7129 29.4344 44.9328 29.6592 43.2176 30.1381L43.2174 21.8485C43.2174 21.2413 42.7276 20.7515 42.1204 20.7515L34.9021 20.7517C34.2949 20.7517 33.8051 21.2415 33.8051 21.8487L33.8054 36.4408C31.2899 39.6355 29.9251 43.5531 29.9253 47.6821C29.9256 57.7479 38.0729 65.894 48.1395 65.8936C52.6363 65.8935 56.8846 64.2743 60.2179 61.3114L63.9662 65.0595L63.7528 65.273C62.8444 66.1813 62.8438 67.6604 63.7529 68.5695L70.6971 75.5133C71.6073 76.4224 73.0859 76.4212 73.9953 75.5132L75.972 73.5344C76.8819 72.6266 76.8798 71.1411 75.9716 70.2387ZM56.7382 56.2811C61.4929 51.528 61.4905 43.8335 56.7377 39.081C51.9872 34.3306 44.2886 34.3301 39.5376 39.0815C34.8077 43.8117 34.8083 51.5522 39.5381 56.2816C44.2902 61.0335 51.9877 61.0357 56.7382 56.2811ZM58.2902 37.5303C52.6816 31.9219 43.5961 31.9223 37.9878 37.5307C35.3827 40.1359 33.991 43.5018 33.8109 46.9192H33.8054V47.0431C33.7861 47.4692 33.7861 47.896 33.8054 48.3221V48.4459H33.8109C34.2097 56.0083 40.4348 62.0379 48.139 62.0378C56.0726 62.0376 62.4944 55.6154 62.4942 47.6819C62.4944 43.8475 61.0017 40.2416 58.2902 37.5303ZM11.5672 56.7517L6.54077 56.7519L6.54029 36.8986L11.5667 36.8984L11.5672 56.7517ZM12.6637 34.7043L5.44333 34.7045C4.83805 34.7045 4.34637 35.1962 4.34637 35.8015L4.34685 57.8487C4.34685 58.4539 4.83853 58.9456 5.44381 58.9456L12.6641 58.9455C13.2694 58.9455 13.7611 58.4538 13.7611 57.8485L13.7606 35.8013C13.7606 35.196 13.2689 34.7043 12.6637 34.7043ZM26.2952 56.7512L21.2688 56.7514L21.2678 16.8037L26.2942 16.8035L26.2952 56.7512ZM27.392 14.6104L20.1717 14.6106C19.5654 14.6106 19.0747 15.1003 19.0747 15.7066L19.0757 57.8482C19.0757 58.4535 19.5664 58.9452 20.1726 58.9452L27.3929 58.945C27.9982 58.945 28.4889 58.4533 28.4889 57.848L28.488 15.7064C28.4881 15.1002 27.9974 14.6104 27.392 14.6104Z" fill="#0F6091"/>
</svg>
