<svg width="81" height="80" viewBox="0 0 81 80" fill="none" xmlns="http://www.w3.org/2000/svg">
<path d="M77.9873 46.0625L74.7027 45.537C74.5331 45.0286 74.3274 44.5326 74.0869 44.0528L76.0381 41.3597C76.3847 40.8811 76.3322 40.2221 75.9143 39.8042L73.2661 37.1576C72.8481 36.74 72.1885 36.6876 71.7097 37.0339L69.015 38.9839C68.5348 38.7434 68.0385 38.5378 67.5298 38.3682L67.0041 35.086C66.9107 34.5028 66.4072 34.0737 65.8161 34.0737H62.071C61.4799 34.0737 60.9764 34.5028 60.883 35.086L60.3573 38.3682C59.8485 38.5376 59.3522 38.7434 58.8721 38.9837L56.1776 37.0337C55.6986 36.6873 55.039 36.7396 54.6212 37.1574L51.973 39.8044C51.555 40.2221 51.5025 40.8813 51.8492 41.3597L53.8004 44.053C53.5599 44.5327 53.3542 45.0286 53.1847 45.537L49.9001 46.0625C49.3166 46.1558 48.8873 46.6591 48.8873 47.2497V50.9927C48.8873 51.5834 49.3166 52.0866 49.9001 52.1799L53.1847 52.7054C53.3543 53.2139 53.56 53.7097 53.8004 54.1895L51.8492 56.8827C51.5025 57.3612 51.555 58.0204 51.973 58.4381L54.6212 61.0847C55.0391 61.5024 55.6988 61.5547 56.1774 61.2084L58.8723 59.2584C59.3525 59.4989 59.8486 59.7045 60.3574 59.8741L60.8832 63.1563C60.9766 63.7395 61.4801 64.1686 62.0711 64.1686H65.8163C66.4073 64.1686 66.9108 63.7395 67.0042 63.1563L67.53 59.8738C68.0388 59.7044 68.5349 59.4986 69.015 59.2584L71.7098 61.2084C72.1885 61.5549 72.8481 61.5024 73.2661 61.0847L75.9143 58.4381C76.3322 58.0204 76.3847 57.3612 76.0381 56.8827L74.0869 54.1896C74.3275 53.7096 74.5334 53.2137 74.7029 52.7054L77.9871 52.1799C78.5706 52.0866 79 51.5834 79 50.9927V47.2497C79.0002 46.6591 78.5708 46.1558 77.9873 46.0625ZM76.5939 49.9675L73.5736 50.4507C73.1002 50.5265 72.717 50.8759 72.5982 51.3402C72.3894 52.1562 72.0646 52.9391 71.6325 53.6672C71.388 54.0795 71.4116 54.5974 71.6928 54.9856L73.4874 57.4628L72.29 58.6595L69.8113 56.8659C69.4228 56.5847 68.9044 56.5611 68.492 56.8056C67.7643 57.237 66.9809 57.5617 66.1637 57.7706C65.6993 57.8893 65.3496 58.2723 65.2738 58.7454L64.7903 61.7641H63.0969L62.6134 58.7456C62.5376 58.2724 62.188 57.8895 61.7236 57.7707C60.9068 57.562 60.1234 57.2373 59.3952 56.8056C58.9828 56.5611 58.4644 56.5848 58.076 56.8659L55.5974 58.6595L54.4 57.4628L56.1946 54.9855C56.4758 54.5973 56.4994 54.0793 56.2549 53.667C55.8234 52.9399 55.4986 52.157 55.2895 51.3401C55.1707 50.8759 54.7875 50.5265 54.3141 50.4507L51.2937 49.9675V48.2751L54.3141 47.7919C54.7875 47.7161 55.1707 47.3667 55.2895 46.9025C55.4986 46.0858 55.8233 45.3029 56.2549 44.5756C56.4994 44.1633 56.4758 43.6453 56.1946 43.2571L54.4 40.78L55.5974 39.5833L58.0758 41.3768C58.4643 41.6578 58.9825 41.6815 59.3952 41.4371C60.1231 41.0056 60.9065 40.6809 61.7236 40.4722C62.1881 40.3534 62.5378 39.9705 62.6134 39.4973L63.0969 36.4788H64.7903L65.2738 39.4973C65.3496 39.9705 65.6993 40.3534 66.1637 40.4722C66.9806 40.6809 67.764 41.0056 68.492 41.4371C68.9044 41.6818 69.4228 41.6579 69.8114 41.377L72.29 39.5834L73.4874 40.7801L71.6927 43.2573C71.4114 43.6455 71.3878 44.1636 71.6324 44.5759C72.064 45.303 72.3888 46.086 72.5979 46.9028C72.7167 47.367 73.0999 47.7164 73.5733 47.7922L76.5939 48.2751V49.9675ZM63.9436 42.3885C60.229 42.3885 57.2069 45.4088 57.2069 49.1213C57.2069 52.8338 60.229 55.8541 63.9436 55.8541C67.6583 55.8541 70.6804 52.8338 70.6804 49.1213C70.6804 45.4088 67.6583 42.3885 63.9436 42.3885ZM63.9436 53.4492C61.5557 53.4492 59.6131 51.5078 59.6131 49.1213C59.6131 46.7348 61.5557 44.7934 63.9436 44.7934C66.3315 44.7934 68.2741 46.7348 68.2741 49.1213C68.2741 51.5076 66.3315 53.4492 63.9436 53.4492ZM50.6234 30.1849L53.3181 32.1349C53.7969 32.4814 54.4565 32.4289 54.8745 32.0112L57.5227 29.3646C57.9406 28.9469 57.9931 28.2876 57.6465 27.8092L55.6953 25.116C55.9359 24.6361 56.1417 24.1401 56.3113 23.6317L59.5955 23.1063C60.179 23.0129 60.6084 22.5097 60.6084 21.919V18.1761C60.6084 17.5854 60.179 17.0822 59.5955 16.9888L56.311 16.4634C56.1414 15.9549 55.9356 15.4589 55.6951 14.9791L57.6463 12.286C57.993 11.8075 57.9405 11.1483 57.5225 10.7306L54.8743 8.0839C54.4564 7.66621 53.7968 7.6139 53.3181 7.9602L50.6234 9.91022C50.1432 9.66973 49.6469 9.46397 49.1383 9.29458L48.6125 6.01228C48.5191 5.42911 48.0156 5 47.4246 5H43.6794C43.0883 5 42.5848 5.42911 42.4914 6.01243L41.9658 9.29473C41.457 9.46412 40.9608 9.66988 40.4807 9.91022L37.786 7.96035C37.3072 7.6139 36.6475 7.66621 36.2298 8.08405L33.5815 10.7307C33.1636 11.1484 33.1111 11.8076 33.4578 12.286L35.4089 14.9793C35.1685 15.4592 34.9627 15.9551 34.7932 16.4634L31.5087 16.9888C30.9252 17.0822 30.4958 17.5854 30.4958 18.1761V21.919C30.4958 22.5097 30.9252 23.0129 31.5087 23.1063L34.7932 23.6317C34.9629 24.1402 35.1686 24.6361 35.4091 25.1158L33.4579 27.8091C33.1113 28.2875 33.1637 28.9467 33.5817 29.3644L36.2299 32.0111C36.6479 32.4288 37.3075 32.4811 37.7862 32.1348L40.481 30.1848C40.9612 30.4252 41.4573 30.6308 41.9661 30.8004L42.4917 34.0827C42.5851 34.666 43.0886 35.0951 43.6797 35.0951H47.4249C48.0159 35.0951 48.5194 34.666 48.6128 34.0828L49.1386 30.8002C49.6472 30.6308 50.1433 30.4252 50.6234 30.1849ZM47.7721 28.6969C47.3077 28.8157 46.958 29.1986 46.8822 29.6718L46.3987 32.6904H44.7053L44.222 29.6719C44.1462 29.1988 43.7965 28.8157 43.3321 28.6971C42.5153 28.4883 41.732 28.1636 41.0038 27.732C40.5915 27.4876 40.073 27.5112 39.6845 27.7922L37.206 29.5858L36.0085 28.3891L37.8032 25.9118C38.0844 25.5236 38.108 25.0056 37.8635 24.5935C37.4318 23.8661 37.107 23.0831 36.898 22.2664C36.7791 21.8023 36.3959 21.4528 35.9225 21.3771L32.9021 20.8938V19.2014L35.9227 18.7182C36.3961 18.6425 36.7793 18.293 36.8981 17.8287C37.107 17.0124 37.4317 16.2295 37.8635 15.5019C38.108 15.0898 38.0842 14.5717 37.8032 14.1836L36.0085 11.7065L37.206 10.5098L39.6845 12.3032C40.073 12.5842 40.5912 12.6078 41.0038 12.3634C41.7318 11.9319 42.5152 11.6073 43.3323 11.3985C43.7968 11.2798 44.1465 10.8968 44.2221 10.4236L44.7055 7.40513H46.3989L46.8824 10.4236C46.9582 10.8968 47.3078 11.2798 47.7724 11.3985C48.589 11.6071 49.3724 11.9318 50.1006 12.3634C50.513 12.6081 51.0314 12.5842 51.4198 12.3033L53.8984 10.5098L55.0958 11.7065L53.3011 14.1836C53.0198 14.5718 52.9962 15.0899 53.2409 15.5022C53.6724 16.2292 53.9972 17.0121 54.2063 17.8292C54.3251 18.2933 54.7083 18.6428 55.1817 18.7185L58.2022 19.2017V20.8941L55.1819 21.3774C54.7084 21.4531 54.3252 21.8026 54.2064 22.2667C53.9975 23.0828 53.6727 23.8658 53.2408 24.5937C52.9962 25.0059 53.0198 25.5239 53.3011 25.9121L55.0957 28.3892L53.8983 29.586L51.4197 27.7922C51.0311 27.511 50.5128 27.4874 50.1005 27.732C49.3727 28.1633 48.5893 28.488 47.7721 28.6969ZM52.2889 20.0476C52.2889 16.3352 49.2668 13.3149 45.5522 13.3149C41.8375 13.3149 38.8154 16.3352 38.8154 20.0476C38.8154 23.7601 41.8375 26.7804 45.5522 26.7804C49.2668 26.7804 52.2889 23.7601 52.2889 20.0476ZM45.552 24.3756C43.1641 24.3756 41.2215 22.4341 41.2215 20.0476C41.2215 17.6611 43.1641 15.7197 45.552 15.7197C47.9399 15.7197 49.8825 17.6611 49.8825 20.0476C49.8827 22.434 47.9399 24.3756 45.552 24.3756ZM3.2038 32.9013C2.86181 32.9013 2.52222 32.7564 2.28416 32.4749C1.85524 31.9676 1.91916 31.2091 2.42673 30.7804C6.97966 26.936 12.5716 24.4656 18.4488 23.6561L15.8616 22.2828C15.2748 21.9712 15.0517 21.2433 15.3633 20.6568C15.6751 20.0705 16.4036 19.8477 16.9903 20.1589L23.2916 23.5037C23.6454 23.6916 23.8824 24.0428 23.924 24.441C23.9655 24.8391 23.806 25.2319 23.4986 25.4884L18.544 29.6244C18.3188 29.8123 18.0454 29.904 17.7734 29.904C17.429 29.904 17.0873 29.7571 16.8492 29.4723C16.4233 28.9626 16.4914 28.2044 17.0014 27.7786L19.1427 25.9912C13.5814 26.6847 8.27873 28.9871 3.97966 32.6172C3.75378 32.8081 3.47796 32.9013 3.2038 32.9013ZM62.1469 15.9034L63.4971 9.59428C63.5809 9.20289 63.8541 8.87869 64.2259 8.72974C64.5975 8.58095 65.0192 8.62649 65.3504 8.85164L71.2496 12.8627C71.799 13.2362 71.9414 13.9842 71.5675 14.5332C71.1937 15.0823 70.4455 15.2247 69.8961 14.8509L67.359 13.1259C68.0672 15.3505 68.4266 17.6682 68.4266 20.0475C68.4266 23.2116 67.7915 26.2757 66.5392 29.1546C66.3422 29.6074 65.8998 29.8778 65.4354 29.8778C65.2752 29.8778 65.1125 29.8457 64.9562 29.7777C64.3468 29.5129 64.0677 28.8047 64.3327 28.1957C65.4527 25.6211 66.0205 22.8798 66.0205 20.0475C66.0205 17.9049 65.6951 15.8189 65.0541 13.8178L64.5001 16.4064C64.3793 16.971 63.8802 17.3575 63.3248 17.3575C63.2415 17.3575 63.1568 17.3488 63.072 17.3306C62.422 17.1917 62.0078 16.5527 62.1469 15.9034ZM77.4714 66.8844C77.6641 67.2354 77.6692 67.6592 77.4853 68.0149L74.2089 74.3495C73.9951 74.7628 73.5747 75 73.1391 75C72.9531 75 72.7644 74.9567 72.5876 74.8655C71.9974 74.5605 71.7664 73.8352 72.0714 73.2452L73.4413 70.5966C71.8406 71.3407 70.1528 71.8954 68.3929 72.2504C66.9005 72.5514 65.3985 72.7004 63.9072 72.7004C59.6303 72.7004 55.4357 71.4771 51.7662 69.1139C51.2076 68.7542 51.0466 68.0101 51.4064 67.4518C51.7665 66.8935 52.5111 66.7326 53.0695 67.0923C57.4893 69.9386 62.7622 70.9334 67.917 69.893C69.5601 69.5615 71.1332 69.0366 72.6195 68.3261L69.8788 68.0778C69.2171 68.0179 68.7292 67.4332 68.7892 66.7719C68.8491 66.1105 69.435 65.6225 70.096 65.6829L76.5252 66.2654C76.924 66.3013 77.2788 66.5335 77.4714 66.8844ZM28.5744 58.021C28.7194 59.2144 28.398 60.3051 27.6452 61.1751C26.8218 62.1265 25.489 62.7786 23.9669 63.0033V63.9316C23.9669 64.5956 23.4282 65.134 22.7638 65.134C22.0993 65.134 21.5606 64.5956 21.5606 63.9316V62.985C19.2595 62.5869 17.4836 61.0817 16.9546 58.9616C16.7939 58.3172 17.1862 57.6648 17.831 57.5041C18.4757 57.3428 19.1285 57.7356 19.2893 58.3799C19.7269 60.1344 21.5209 60.7163 22.9239 60.6842C24.1427 60.6552 25.2813 60.2303 25.8253 59.602C26.1348 59.2443 26.2494 58.8341 26.1858 58.3108C26.0817 57.4537 25.5779 56.4069 22.5821 55.9153C18.4482 55.2369 17.4839 53.106 17.4029 51.4378C17.2906 49.1287 18.8974 47.1958 21.4008 46.6284C21.4536 46.6164 21.5073 46.606 21.5606 46.5953V45.6301C21.5606 44.966 22.0993 44.4277 22.7638 44.4277C23.4282 44.4277 23.9669 44.966 23.9669 45.6301V46.5845C25.6589 46.9013 27.2955 47.9293 28.1329 49.9224C28.39 50.5347 28.102 51.2395 27.4894 51.4965C26.8764 51.7537 26.1715 51.4656 25.9143 50.8534C25.1769 49.0985 23.3832 48.6445 21.933 48.9736C20.8615 49.2164 19.7402 49.9606 19.8063 51.3211C19.829 51.7904 19.8895 53.0364 22.9719 53.5423C24.2484 53.7518 28.1332 54.3891 28.5744 58.021ZM22.7636 39.1177C14.1219 39.1177 7.09125 46.1441 7.09125 54.7808C7.09125 63.4174 14.1219 70.4439 22.7636 70.4439C31.4054 70.4439 38.436 63.4174 38.436 54.7808C38.436 46.1441 31.4054 39.1177 22.7636 39.1177ZM22.7636 68.0392C15.4486 68.0392 9.4975 62.0916 9.4975 54.7809C9.4975 47.4702 15.4486 41.5226 22.7636 41.5226C30.0786 41.5226 36.0297 47.4702 36.0297 54.7809C36.0297 62.0916 30.0786 68.0392 22.7636 68.0392ZM22.7636 34.6411C11.6518 34.6411 2.61186 43.6757 2.61186 54.7809C2.61186 65.8861 11.6518 74.9209 22.7636 74.9209C33.8754 74.9209 42.9155 65.8861 42.9155 54.7809C42.9155 43.6757 33.8754 34.6411 22.7636 34.6411ZM22.7636 72.516C12.9787 72.516 5.01811 64.56 5.01811 54.7808C5.01811 45.0015 12.9786 37.0459 22.7636 37.0459C32.5486 37.0459 40.5093 45.0018 40.5093 54.7809C40.5093 64.56 32.5485 72.516 22.7636 72.516Z" fill="#0F6091"/>
</svg>
