<svg width="81" height="80" viewBox="0 0 81 80" fill="none" xmlns="http://www.w3.org/2000/svg">
<path d="M77.9805 5.29053L69.2439 5.42725C68.9125 5.43265 68.5967 5.56938 68.366 5.80742C68.1353 6.04545 68.0085 6.36532 68.0134 6.69678C68.0243 7.02643 68.1627 7.339 68.3996 7.56855C68.6364 7.79811 68.9531 7.92671 69.283 7.92725L74.4748 7.84576L54.0352 24.8377L43.7752 12.9627C43.5937 12.7515 43.3468 12.6072 43.0738 12.5528C42.8007 12.4983 42.5173 12.5369 42.2688 12.6624L34.442 16.5885C32.9441 14.2359 30.9124 12.2698 28.512 10.8499C26.1116 9.42991 23.4101 8.59614 20.627 8.41627C17.8438 8.2364 15.0575 8.71551 12.4943 9.81469C9.93108 10.9139 7.66326 12.6021 5.87503 14.7423C4.08679 16.8825 2.82856 19.4143 2.20253 22.1321C1.5765 24.8499 1.60032 27.677 2.27205 30.3838C2.94379 33.0907 4.2445 35.6009 6.06855 37.7107C7.89259 39.8205 10.1885 41.4703 12.7699 42.5261V73.4595C12.7699 73.6236 12.8022 73.7862 12.865 73.9379C12.9278 74.0896 13.0198 74.2274 13.1359 74.3435C13.252 74.4595 13.3898 74.5516 13.5415 74.6144C13.6932 74.6772 13.8557 74.7095 14.0199 74.7095H23.8014C23.9656 74.7095 24.1281 74.6772 24.2798 74.6144C24.4315 74.5516 24.5693 74.4595 24.6854 74.3435C24.8015 74.2274 24.8935 74.0896 24.9563 73.9379C25.0191 73.7862 25.0514 73.6236 25.0514 73.4595V42.9551C27.1636 42.2582 29.1258 41.1701 30.8357 39.7476V73.4595C30.8356 73.6236 30.868 73.7862 30.9308 73.9379C30.9936 74.0896 31.0856 74.2274 31.2017 74.3435C31.3178 74.4595 31.4556 74.5516 31.6073 74.6144C31.759 74.6772 31.9215 74.7095 32.0857 74.7095H41.8672C42.0314 74.7096 42.194 74.6773 42.3457 74.6145C42.4974 74.5517 42.6352 74.4597 42.7513 74.3436C42.8674 74.2275 42.9594 74.0896 43.0222 73.9379C43.085 73.7862 43.1173 73.6236 43.1172 73.4595V29.3432C43.1173 29.1791 43.085 29.0165 43.0222 28.8648C42.9594 28.7131 42.8674 28.5752 42.7513 28.4591C42.6352 28.343 42.4974 28.251 42.3457 28.1882C42.194 28.1254 42.0314 28.0931 41.8672 28.0932H37.1228C37.1986 27.4363 37.2377 26.7757 37.2401 26.1145C37.2382 23.5846 36.6913 21.0848 35.6368 18.7852L42.519 15.3332L52.9451 27.3999C53.159 27.648 53.4619 27.8021 53.7884 27.829C54.1149 27.856 54.4389 27.7536 54.6907 27.5439L76.75 9.20509V15.0696C76.75 15.4011 76.8817 15.719 77.1161 15.9535C77.3505 16.1879 77.6685 16.3196 78 16.3196C78.3315 16.3196 78.6495 16.1879 78.8839 15.9535C79.1183 15.719 79.25 15.4011 79.25 15.0696V6.54053C79.2399 6.20883 79.1024 5.89379 78.8659 5.66096C78.6294 5.42814 78.3123 5.29545 77.9805 5.29053ZM22.5514 72.2095H15.2699V43.3289C17.6505 43.9377 20.1349 44.0221 22.5514 43.5764V72.2095ZM19.496 41.3586C16.4808 41.3588 13.5333 40.4648 11.0262 38.7897C8.51914 37.1146 6.56509 34.7337 5.41117 31.9481C4.25726 29.1624 3.95531 26.0972 4.54351 23.1399C5.13171 20.1827 6.58365 17.4663 8.7157 15.3342C10.8478 13.2022 13.5642 11.7502 16.5214 11.162C19.4787 10.5738 22.5439 10.8758 25.3296 12.0297C28.1152 13.1836 30.4961 15.1377 32.1712 17.6447C33.8462 20.1518 34.7402 23.0993 34.7401 26.1145C34.7353 30.156 33.1276 34.0306 30.2699 36.8884C27.4121 39.7462 23.5375 41.3538 19.496 41.3586ZM40.6172 30.5933V72.2095H33.3357V37.1909C34.8906 35.2489 36.0183 33.0007 36.6451 30.5933H40.6172Z" fill="#0F6091"/>
<path d="M59.9336 32.0874H50.1521C49.9879 32.0873 49.8253 32.1196 49.6736 32.1824C49.5219 32.2451 49.3841 32.3372 49.268 32.4533C49.1519 32.5694 49.0598 32.7072 48.9971 32.8589C48.9343 33.0106 48.902 33.1732 48.9021 33.3374V73.4583C48.902 73.6224 48.9343 73.785 48.9971 73.9367C49.0598 74.0884 49.1519 74.2263 49.268 74.3424C49.3841 74.4584 49.5219 74.5505 49.6736 74.6133C49.8253 74.6761 49.9879 74.7084 50.1521 74.7083H59.9336C60.0978 74.7084 60.2604 74.6761 60.4121 74.6133C60.5638 74.5505 60.7016 74.4584 60.8177 74.3424C60.9338 74.2263 61.0259 74.0884 61.0886 73.9367C61.1514 73.785 61.1837 73.6224 61.1836 73.4583V33.3374C61.1837 33.1732 61.1514 33.0106 61.0886 32.8589C61.0259 32.7072 60.9338 32.5694 60.8177 32.4533C60.7016 32.3372 60.5638 32.2451 60.4121 32.1824C60.2604 32.1196 60.0978 32.0873 59.9336 32.0874ZM58.6836 72.2083H51.4021V34.5874H58.6836V72.2083Z" fill="#0F6091"/>
<path d="M78 21.3269H68.2185C68.0543 21.3268 67.8917 21.3591 67.74 21.4219C67.5883 21.4846 67.4505 21.5767 67.3344 21.6928C67.2183 21.8089 67.1262 21.9467 67.0635 22.0984C67.0007 22.2501 66.9684 22.4127 66.9685 22.5769V73.4595C66.9684 73.6237 67.0007 73.7862 67.0635 73.9379C67.1262 74.0896 67.2183 74.2275 67.3344 74.3436C67.4505 74.4597 67.5883 74.5517 67.74 74.6145C67.8917 74.6773 68.0543 74.7096 68.2185 74.7095H78C78.1642 74.7096 78.3268 74.6773 78.4785 74.6145C78.6302 74.5517 78.768 74.4597 78.8841 74.3436C79.0002 74.2275 79.0923 74.0896 79.155 73.9379C79.2178 73.7862 79.2501 73.6237 79.25 73.4595V22.5769C79.2501 22.4127 79.2178 22.2501 79.155 22.0984C79.0923 21.9467 79.0002 21.8089 78.8841 21.6928C78.768 21.5767 78.6302 21.4846 78.4785 21.4219C78.3268 21.3591 78.1642 21.3268 78 21.3269ZM76.75 72.2095H69.4685V23.8269H76.75V72.2095Z" fill="#0F6091"/>
<path d="M19.4948 24.8645C16.7647 24.8645 16.5602 24.231 16.5602 23.2654C16.5602 21.0088 21.5234 21.2343 22.3903 22.2131C22.4989 22.3367 22.6309 22.4376 22.7786 22.51C22.9264 22.5825 23.0869 22.6251 23.2512 22.6353C23.4154 22.6456 23.58 22.6233 23.7356 22.5697C23.8912 22.5162 24.0347 22.4325 24.1579 22.3234C24.281 22.2143 24.3814 22.082 24.4533 21.934C24.5252 21.786 24.5672 21.6252 24.5769 21.461C24.5865 21.2967 24.5636 21.1322 24.5095 20.9768C24.4554 20.8214 24.3712 20.6782 24.2616 20.5554C23.3407 19.7168 22.167 19.2085 20.9254 19.1104V17.7148C20.9254 17.3833 20.7937 17.0654 20.5593 16.831C20.3249 16.5965 20.0069 16.4648 19.6754 16.4648C19.3439 16.4648 19.026 16.5965 18.7915 16.831C18.5571 17.0654 18.4254 17.3833 18.4254 17.7148V19.1044C15.4181 19.4948 14.0602 21.2457 14.0602 23.2654C14.0602 27.3645 18.1508 27.3645 19.4948 27.3645C22.176 27.3645 22.7925 27.6636 22.7925 28.9624C22.7925 31.2599 17.7255 31.009 16.8934 29.9341C16.7933 29.8036 16.6684 29.6941 16.5259 29.612C16.3833 29.5299 16.226 29.4767 16.0629 29.4555C15.8998 29.4343 15.7341 29.4455 15.5753 29.4884C15.4165 29.5314 15.2677 29.6053 15.1376 29.7058C15.0074 29.8064 14.8983 29.9316 14.8166 30.0744C14.7349 30.2172 14.6822 30.3747 14.6615 30.5378C14.6408 30.701 14.6525 30.8667 14.696 31.0253C14.7394 31.184 14.8137 31.3325 14.9147 31.4624C15.8341 32.4398 17.0871 33.0362 18.4254 33.1336V34.5142C18.4254 34.8457 18.5571 35.1636 18.7915 35.3981C19.026 35.6325 19.3439 35.7642 19.6754 35.7642C20.007 35.7642 20.3249 35.6325 20.5593 35.3981C20.7937 35.1636 20.9254 34.8457 20.9254 34.5142V33.1354C21.3858 33.0779 21.8395 32.9763 22.2804 32.8321C23.1387 32.6092 23.8994 32.1089 24.4441 31.4091C24.9888 30.7094 25.287 29.8492 25.2925 28.9625C25.2925 24.8645 21.3765 24.8645 19.4948 24.8645Z" fill="#0F6091"/>
</svg>
